<?xml version="1.0" encoding="UTF-8"?>
<svg id="Vrstva_1" data-name="Vrstva 1" xmlns="http://www.w3.org/2000/svg" viewBox="0 0 379.06 156.7">
  <defs>
    <style>
      .cls-1 {
        fill: #fff;
        stroke-width: 0px;
      }

      .cls-2 {
        fill: none;
        stroke: #fff;
        stroke-miterlimit: 10;
        stroke-width: 4px;
      }
    </style>
  </defs>
  <g>
    <path class="cls-2" d="m224.61.25c-9.09,70.72-5.77,107.96-.39,129.13,1.19,4.68,4.34,15.9-1.17,21.52-10.36,10.55-46.88-3.17-46.96-13.7-.05-7.17,16.8-14.06,28.57-16.04,4.52-.76,9.26-.97,16.48-.28,17.99,1.71,30.57,6.99,39.09,10.06,22.47,8.13,41.49,9.97,51.65,10.96,30.95,3,46.75-2.44,54-5.48,5.23-2.19,9.34-4.53,12.13-6.26"/>
    <path class="cls-2" d="m221.13,120.89c16.11-31.6,35.26-53.24,53.27-68.32,1.22-1.02,2.45-2.03,3.68-3.01"/>
    <path class="cls-1" d="m256.86,116.56c-2.33-.78-3.29-3.58-2.67-5.8.81-2.92,3.46-4.8,6.25-5.61,1.5-.44,3.18-.74,4.75-.62s1.89,1.4,2.42,2.67c.97,2.3,2.36,6.16-.19,8-1.36.98-3.32,1.41-4.92,1.82-1.87.49-3.69.7-5.52-.03-.94-.38-2.06.41-2.31,1.31-.29,1.07.37,1.93,1.31,2.31,2.25.9,4.72.71,7.03.16,2.05-.49,4.39-1.1,6.18-2.25,4.26-2.73,3.8-8.04,2.11-12.14-.89-2.15-1.72-4.37-4.09-5.23-2.01-.73-4.49-.34-6.52.08-4.3.89-8.24,3.52-9.84,7.73-1.69,4.42.44,9.69,5.02,11.22,2.29.77,3.28-2.85,1-3.62h0Z"/>
    <path class="cls-1" d="m287.93,97.48c-2.74.66-5.76,1.47-7.74,3.63-1.79,1.96-2.71,4.86-1.62,7.38.58,1.34,1.65,2.26,2.83,3.08,1.24.87,2.52,1.7,3.89,2.37.65.32,2.26.78,2.51,1.55.27.82-1.22,1.23-1.75,1.31-1.72.26-3.6.05-5.34.04-1.91-.01-3.83-.02-5.74-.03-2.41-.01-2.42,3.74,0,3.75,3.35.02,6.7.12,10.05.05,1.58-.03,3.21-.28,4.51-1.24s2.16-2.39,2.04-3.98c-.24-3.13-3.29-4-5.59-5.32-1.17-.67-2.48-1.41-3.45-2.36-.69-.67-.8-1.5-.54-2.4.84-2.89,4.43-3.6,6.95-4.21,2.34-.57,1.35-4.18-1-3.62h0Z"/>
    <path class="cls-1" d="m295.87,84.04l2.43,35.28c.17,2.39,3.92,2.41,3.75,0l-2.43-35.28c-.17-2.39-3.92-2.41-3.75,0h0Z"/>
    <path class="cls-1" d="m292.12,94.63c4.8-.54,9.54-1.43,14.19-2.74.97-.27,1.58-1.33,1.31-2.31s-1.33-1.58-2.31-1.31c-4.32,1.22-8.73,2.1-13.19,2.61-1.01.11-1.88.78-1.88,1.88,0,.93.86,1.99,1.88,1.88h0Z"/>
    <path class="cls-1" d="m310.63,84.03c-.69,11.56-1.39,23.12-2.08,34.68-.14,2.41,3.61,2.4,3.75,0,.69-11.56,1.39-23.12,2.08-34.68.14-2.41-3.61-2.4-3.75,0h0Z"/>
    <path class="cls-1" d="m312.8,111.34c1.27-1.52,2.69-2.86,4.23-4.12.22-.18-.23.17,0,0,.11-.08.21-.16.32-.24.19-.14.38-.28.58-.42.41-.29.83-.57,1.26-.84.86-.54,1.74-1.03,2.65-1.47s1.19-1.76.67-2.57c-.58-.9-1.62-1.14-2.57-.67-3.73,1.84-7.12,4.47-9.78,7.67-.63.75-.79,1.92,0,2.65.69.64,1.98.8,2.65,0h0Z"/>
    <path class="cls-1" d="m310.03,110.96c3.45,5.25,9.42,7.58,15.1,9.58.96.34,2.05-.38,2.31-1.31.28-1.04-.35-1.97-1.31-2.31-2.61-.92-4.91-1.74-7.29-3.05-.58-.32-1.15-.66-1.7-1.03s-.93-.64-1.36-1.01c-1.01-.86-1.87-1.8-2.51-2.77-.55-.85-1.66-1.2-2.57-.67-.84.49-1.23,1.71-.67,2.57h0Z"/>
    <path class="cls-1" d="m334.48,105.81c2.38-1.31,5.76-.76,8.28-.13.36.09.92.19,1.17.49.37.44.35,1.37.41,1.9.16,1.57.28,3.15-.2,4.68s-1.19,3.02-.79,4.7c.33,1.41,1.36,2.56,2.56,3.32,2.94,1.88,6.57,1.25,9.78.6,2.36-.48,1.36-4.09-1-3.62-1.62.33-3.35.72-5.01.48-.88-.13-2.29-.57-2.64-1.52-.25-.65.18-1.47.4-2.08.27-.73.51-1.45.63-2.22.28-1.77.14-3.51-.08-5.28-.19-1.59-.57-3.03-1.91-4.04-1.19-.89-2.66-1.15-4.09-1.37-3.18-.5-6.47-.78-9.4.83-2.12,1.16-.23,4.4,1.89,3.24h0Z"/>
    <path class="cls-1" d="m342.85,109.97c-2.31.38-4.69.62-6.95,1.24-2.09.58-4.42,1.73-5.42,3.77s-.46,4.54,1.21,6.12,4.09,2.16,6.34,2.14c2.74-.03,5.32-.97,7.8-2.08.92-.42,1.15-1.76.67-2.57-.56-.95-1.64-1.09-2.57-.67-1.91.86-4.1,1.6-6.22,1.57-.64-.01-.82-.02-1.39-.15-.27-.06-.53-.13-.79-.22-.13-.04-.25-.09-.38-.14.15.05.12.03-.09-.06-.56-.33-.58-.32-.98-.74-.14-.17-.16-.19-.04-.05-.07-.1-.13-.2-.19-.31-.1-.2-.11-.21-.03-.03-.03-.08-.06-.16-.08-.25-.03-.08-.05-.17-.06-.25.02.22.02.21,0-.01,0-.11,0-.23,0-.34-.03.21-.02.21.02-.01.07-.21.07-.22,0-.05.05-.11.11-.21.17-.31.12-.18.13-.2.03-.06.08-.1.16-.19.25-.28.6-.61,1.42-.99,2.29-1.26,2.37-.74,4.94-.97,7.39-1.37,1-.16,1.56-1.41,1.31-2.31-.29-1.06-1.3-1.47-2.31-1.31h0Z"/>
  </g>
  <path class="cls-1" d="m3.46,149.02c7.15-16.15,14.09-32.39,20.81-48.72s13.23-32.75,19.52-49.25c3.53-9.28,7-18.58,10.4-27.91.83-2.27-2.8-3.25-3.62-1-5.99,16.44-12.18,32.81-18.6,49.09-6.41,16.28-13.04,32.48-19.89,48.58-3.88,9.14-7.84,18.25-11.86,27.33-.41.93-.26,2,.67,2.57.79.48,2.16.25,2.57-.67h0Z"/>
  <path class="cls-1" d="m51.78,22.88c3.16,16.94,6.48,33.86,9.97,50.74s7.13,33.73,10.93,50.54c2.15,9.49,4.35,18.97,6.6,28.44.56,2.35,4.17,1.35,3.62-1-3.98-16.77-7.81-33.58-11.47-50.42s-7.17-33.72-10.51-50.63c-1.89-9.55-3.72-19.1-5.51-28.67-.44-2.37-4.06-1.37-3.62,1h0Z"/>
  <path class="cls-1" d="m9.62,87.66c26.13.88,52.3.59,78.4-.88,7.43-.42,14.86-.94,22.29-1.55,2.39-.2,2.41-3.95,0-3.75-26.06,2.14-52.21,3.12-78.36,2.9-7.45-.06-14.89-.22-22.33-.47-2.41-.08-2.41,3.67,0,3.75h0Z"/>
  <path class="cls-1" d="m101.16,100.05c.23,11.65.45,23.3.68,34.95.05,2.41,3.8,2.42,3.75,0-.23-11.65-.45-23.3-.68-34.95-.05-2.41-3.8-2.42-3.75,0h0Z"/>
  <path class="cls-1" d="m103.29,117.73c-6-2.14-12.7,1.75-15.8,6.89-1.68,2.78-1.85,6.08.32,8.64,1.86,2.19,4.91,3.15,7.67,3.44,3.25.34,6.65-.51,9.38-2.29.85-.55,1.2-1.66.67-2.57-.49-.84-1.71-1.23-2.57-.67-3.38,2.21-8.41,2.7-11.71.21-.62-.47-1.13-1.09-1.29-1.83-.19-.85.08-1.78.51-2.59,1-1.87,2.67-3.48,4.46-4.59,2.23-1.39,4.84-1.93,7.35-1.03.95.34,2.05-.38,2.31-1.31.29-1.04-.35-1.97-1.31-2.31h0Z"/>
  <path class="cls-1" d="m112.98,120.47c2.38-1.31,5.76-.76,8.28-.13.36.09.92.19,1.17.49.37.44.35,1.37.41,1.9.16,1.57.28,3.15-.2,4.68s-1.19,3.02-.79,4.7c.33,1.41,1.36,2.56,2.56,3.32,2.94,1.88,6.57,1.25,9.78.6,2.36-.48,1.36-4.09-1-3.62-1.62.33-3.35.72-5.01.48-.88-.13-2.29-.57-2.64-1.52-.25-.65.18-1.47.4-2.08.27-.73.51-1.45.63-2.22.28-1.77.14-3.51-.08-5.28-.19-1.59-.57-3.03-1.91-4.04-1.19-.89-2.66-1.15-4.09-1.37-3.18-.5-6.47-.78-9.4.83-2.12,1.16-.23,4.4,1.89,3.24h0Z"/>
  <path class="cls-1" d="m121.35,124.64c-2.31.38-4.69.62-6.95,1.24-2.09.58-4.42,1.73-5.42,3.77s-.46,4.54,1.21,6.12,4.09,2.16,6.34,2.14c2.74-.03,5.32-.97,7.8-2.08.92-.42,1.15-1.76.67-2.57-.56-.95-1.64-1.09-2.57-.67-1.91.86-4.1,1.6-6.22,1.57-.64-.01-.82-.02-1.39-.15-.27-.06-.53-.13-.79-.22-.13-.04-.25-.09-.38-.14.15.05.12.03-.09-.06-.56-.33-.58-.32-.98-.74-.14-.17-.16-.19-.04-.05-.07-.1-.13-.2-.19-.31-.1-.2-.11-.21-.03-.03-.03-.08-.06-.16-.08-.25-.03-.08-.05-.17-.06-.25.02.22.02.21,0-.01,0-.11,0-.23,0-.34-.03.21-.02.21.02-.01.07-.21.07-.22,0-.05.05-.11.11-.21.17-.31.12-.18.13-.2.03-.06.08-.1.16-.19.25-.28.6-.61,1.42-.99,2.29-1.26,2.37-.74,4.94-.97,7.39-1.37,1-.16,1.56-1.41,1.31-2.31-.29-1.06-1.3-1.47-2.31-1.31h0Z"/>
  <path class="cls-1" d="m134.33,116.97c1.29,6.38,1.98,12.85,2.08,19.37.04,2.41,3.79,2.42,3.75,0-.1-6.84-.85-13.66-2.21-20.36-.2-.99-1.38-1.56-2.31-1.31-1.03.28-1.51,1.31-1.31,2.31h0Z"/>
  <path class="cls-1" d="m137.65,123.13c3.27-1.29,8.11-2.02,10.29,1.32.99,1.52,1.01,3.29.99,5.08-.03,2.16-.13,4.3.34,6.43.22.99,1.37,1.57,2.31,1.31,1.02-.28,1.53-1.31,1.31-2.31-.47-2.14-.15-4.45-.21-6.66-.07-2.43-.61-4.78-2.19-6.68-3.4-4.07-9.3-3.9-13.82-2.11-.94.37-1.6,1.25-1.31,2.31.25.9,1.36,1.68,2.31,1.31h0Z"/>
  <path class="cls-1" d="m151.09,123.75c2.79-1.29,7.03-2.31,9.07.77,1.02,1.55,1.28,3.37,1.3,5.19.02,2.24-.23,4.49-.46,6.71-.1,1.01.93,1.88,1.88,1.88,1.1,0,1.77-.86,1.88-1.88.5-4.92,1.33-10.66-2.08-14.77-1.54-1.85-3.86-2.77-6.22-2.91-2.54-.15-4.98.72-7.25,1.76-.92.42-1.15,1.75-.67,2.57.55.94,1.64,1.1,2.57.67h0Z"/>
</svg>